<?xml version="1.0" encoding="utf-8"?>
<?xml-stylesheet type="text/xsl" href="rss1.xsl"?>
<rss version="2.0" xmlns:atom="http://www.w3.org/2005/Atom" xmlns:content="http://purl.org/rss/1.0/modules/content/" xmlns:dc="http://purl.org/dc/elements/1.1/" xmlns:media="http://search.yahoo.com/mrss/">
<channel>
 <title>Getty</title>
 <link>http://www.gettyimg.com/</link>
 <atom:link href="http://www.gettyimg.com/" rel="self" type="application/rss+xml" />

 
                <item>
                <title><![CDATA[【Cinema Center】SERIES - Santiago of the Seas - Season 2 - 1080p Amazon WEB-DL DDP5.1 H.264-LAZY]]></title>
                <link><![CDATA[https://sharemania.us/threads/santiago-of-the-seas-season-2-1080p-amazon-web-dl-ddp5-1-h-264-lazy.232511/]]></link>
                <description><![CDATA[<article>
<blockquote class="messageText SelectQuoteContainer ugc baseHtml">
Santiago of the Seas:<img src="https://i.imgur.com/4gEbjTI.jpg" class="bbCodeImage LbImage" alt="[​IMG]" data-url="https://i.imgur.com/4gEbjTI.jpg" style=""> <br>
<br>
<div class="bbCodeBlock bbCodeQuote">
<aside>
<blockquote class="quoteContainer"><div class="quote"><i><b>Synopsis:</b></i><br>
Infused with a Spanish-language and Latino-Caribbean culture curriculum, this action-adventure series follows 8-year-old Santiago “Santi” Montes, a brave and kind-hearted pirate, as he embarks on daring rescues, searches for treasures and keeps the high seas safe in a fantastical Caribbean world.</div><div class="quoteExpand">Click to expand...</div></blockquote>
</aside>
</div>
<div class="ToggleTriggerAnchor bbCodeSpoilerContainer">
<button type="button" class="button bbCodeSpoilerButton ToggleTrigger Tooltip JsOnly" data-target="> .SpoilerTarget"><span>Spoiler: <span class="SpoilerTitle">MediaInfo</span></span></button>
<div class="SpoilerTarget bbCodeSpoilerText">General<br>
Unique ID : 267933411694288336457040731908000615264 (0xC992191B027FF988DD96C8872EEA8B60)<br>
Complete name : Santiago.of.the.Seas.S02E01.The.Stones.of.Power.1080p.AMZN.WEB-DL.DDP5.1.H.264-LAZY.mkv<br>
Format : Matroska<br>
Format version : Version 4<br>
File size : 1.40 GiB<br>
Duration : 22 min 38 s<br>
Overall bit rate : 8 834 kb/s<br>
Frame rate : 23.976 FPS<br>
Encoded date : 2023-11-18 14:15:01 UTC<br>
Writing application : mkvmerge v80.0 ('Roundabout') 64-bit<br>
Writing library : libebml v1.4.4 + libmatroska v1.7.1<br>
<br>
Video<br>
ID : 1<br>
Format : AVC<br>
Format/Info : Advanced Video Codec<br>
Format profile : High@L4<br>
Format settings : CABAC / 4 Ref Frames<br>
Format settings, CABAC : Yes<br>
Format settings, Reference frames : 4 frames<br>
Codec ID : V_MPEG4/ISO/AVC<br>
Duration : 22 min 38 s<br>
Bit rate mode : Constant<br>
Bit rate : 8 193 kb/s<br>
Nominal bit rate : 10 000 kb/s<br>
Width : 1 920 pixels<br>
Height : 1 080 pixels<br>
Display aspect ratio : 16:9<br>
Frame rate mode : Constant<br>
Frame rate : 23.976 (24000/1001) FPS<br>
Color space : YUV<br>
Chroma subsampling : 4:2:0<br>
Bit depth : 8 bits<br>
Scan type : Progressive<br>
Bits/(Pixel*Frame) : 0.165<br>
Stream size : 1.30 GiB (93%)<br>
Default : Yes<br>
Forced : No<br>
Color range : Limited<br>
Color primaries : BT.709<br>
Transfer characteristics : BT.709<br>
Matrix coefficients : BT.709<br>
<br>
Audio<br>
ID : 2<br>
Format : E-AC-3<br>
Format/Info : Enhanced AC-3<br>
Commercial name : Dolby Digital Plus<br>
Codec ID : A_EAC3<br>
Duration : 22 min 38 s<br>
Bit rate mode : Constant<br>
Bit rate : 640 kb/s<br>
Channel(s) : 6 channels<br>
Channel layout : L R C LFE Ls Rs<br>
Sampling rate : 48.0 kHz<br>
Frame rate : 31.250 FPS (1536 SPF)<br>
Compression mode : Lossy<br>
Stream size : 104 MiB (7%)<br>
Language : English<br>
Service kind : Complete Main<br>
Default : Yes<br>
Forced : No<br>
<br>
Text<br>
ID : 3<br>
Format : UTF-8<br>
Codec ID : S_TEXT/UTF8<br>
Codec ID/Info : UTF-8 Plain Text<br>
Duration : 21 min 57 s<br>
Bit rate : 72 b/s<br>
Frame rate : 0.332 FPS<br>
Count of elements : 437<br>
Stream size : 11.7 KiB (0%)<br>
Title : SDH<br>
Language : English<br>
Default : No<br>
Forced : No</div>
</div><br>
Screenshots:<br>
<img src="https://i.imgur.com/rbMxNrK.jpg" class="bbCodeImage LbImage" alt="[​IMG]" data-url="https://i.imgur.com/rbMxNrK.jpg" style=""> <br>
<br>
<div class="bbCodeBlock bbCodeVfcHH HiddenContent">
<div class="attribution type">Hidden Content:</div>
<blockquote>You must either reply or click 'Like' to see the hidden information contained here.</blockquote>
</div>
<div class="messageTextEndMarker">&nbsp;</div>
</blockquote>
</article>]]></description>
                <author><![CDATA[LazyRips]]></author>
                </item>

                
                <item>
                <title><![CDATA[【Albums (lossless)】FLAC - Michael Jackson - Thriller (1982, Japan 1st press 35.8P-11)]]></title>
                <link><![CDATA[https://sharemania.us/threads/michael-jackson-thriller-1982-japan-1st-press-35-8p-11.232512/]]></link>
                <description><![CDATA[<article>
<blockquote class="messageText SelectQuoteContainer ugc baseHtml">
<img src="https://postimg.cc/KRykD1DJ" class="bbCodeImage LbImage" alt="[​IMG]" data-url="https://postimg.cc/KRykD1DJ" style=""><img src="https://i.postimg.cc/QxFQs59G/R-3268825-1604162325-1185-1.jpg" class="bbCodeImage LbImage" alt="[​IMG]" data-url="https://i.postimg.cc/QxFQs59G/R-3268825-1604162325-1185-1.jpg" style=""> <br>
<br>
<br>
<a href="https://mega.nz/file/SAdg1YoR#PoLbEtHGcG1MBCye26M12oXZS31k8wEX0PDgVEZuXNA" target="_blank" class="externalLink" rel="nofollow">https://mega.nz/file/SAdg1YoR#PoLbEtHGcG1MBCye26M12oXZS31k8wEX0PDgVEZuXNA</a>
<div class="messageTextEndMarker">&nbsp;</div>
</blockquote>
</article>]]></description>
                <author><![CDATA[MichaelJacksonaddict1989]]></author>
                </item>

                </channel></rss>